inDegrees=yes
name=ik_S41_A08_T01
DataType=double
version=3
OpenSimVersion=4.3-2021-08-27-4bc7ad9
endheader
time	pelvis_tilt	pelvis_list	pelvis_rotation	pelvis_tx	pelvis_ty	pelvis_tz	hip_flexion_r	hip_adduction_r	hip_rotation_r	knee_angle_r	knee_angle_r_beta	ankle_angle_r	subtalar_angle_r	mtp_angle_r	hip_flexion_l	hip_adduction_l	hip_rotation_l	knee_angle_l	knee_angle_l_beta	ankle_angle_l	subtalar_angle_l	mtp_angle_l	lumbar_extension	lumbar_bending	lumbar_rotation	arm_flex_r	arm_add_r	arm_rot_r	elbow_flex_r	pro_sup_r	wrist_flex_r	wrist_dev_r	arm_flex_l	arm_add_l	arm_rot_l	elbow_flex_l	pro_sup_l	wrist_flex_l	wrist_dev_l
5.799999999999964	-8.256126640165279	-3.458811410888156	36.07851256631631	0	0.9399999999999999	0	44.86534724528963	-10.93980918351455	-10.94893431067752	52.15088890452864	0.9102047192258034	0	0	0	44.86534724528963	-10.93980918351455	-10.94893431067752	52.15088890452864	0.9102047192258034	0	0	0	-7.865471639994136	-0.375496575164456	2.450878859719154	27.84704098571914	-3.449710384910968	1.552741814444889	9.873109763462972	84.01262394431855	0	0	58.0285774532945	-23.73079372199763	-13.96488053403802	55.34085364449404	70.59923025491851	0	0
5.819999999999964	-8.26300481617152	-3.467229280247667	35.92411224534663	0	0.9399999999999999	0	44.86540575473022	-10.9383791900676	-10.94800890597193	52.15171774285957	0.9102191851836451	0	0	0	44.86540575473022	-10.9383791900676	-10.94800890597193	52.15171774285957	0.9102191851836451	0	0	0	-7.871399482508135	-0.3946179615555658	2.548867367170682	27.93253408583396	-3.422606264473914	1.500967000209002	9.833545397688916	84.090097549276	0	0	58.06946410346764	-22.79148326175281	-13.38130791217175	55.29764475387615	71.52881815842406	0	0
5.839999999999963	-8.264286169720222	-3.474767716418353	35.76010814189156	0	0.9399999999999999	0	44.86549550541345	-10.93618531202042	-10.94658890530421	52.15298750761965	0.9102413467594341	0	0	0	44.86549550541345	-10.93618531202042	-10.94658890530421	52.15298750761965	0.9102413467594341	0	0	0	-7.871304024837351	-0.42070633744785	2.671325856953579	28.04494799383806	-3.407026452524271	1.237456215819584	9.752029853906615	84.3886629846164	0	0	58.0596257935611	-21.73905748361898	-12.65377255924128	55.33750314208753	72.75890155981168	0	0
5.859999999999963	-8.274707391930498	-3.490276335033006	35.59923091873362	0	0.9399999999999999	0	44.86555192040463	-10.93481081768231	-10.94569807193745	52.15378725666737	0.9102553050135066	0	0	0	44.86555192040463	-10.93481081768231	-10.94569807193745	52.15378725666737	0.9102553050135066	0	0	0	-7.882889363562038	-0.4471784356098868	2.788827243151095	28.13547977145422	-3.357321390870886	1.164199070315648	9.705346191711186	84.47311287886512	0	0	57.98961100237696	-20.80621853625573	-11.94782261284558	55.46353679967564	73.89423968596461	0	0
5.879999999999963	-8.261182317404851	-3.498550715580441	35.50088830787607	0	0.9399999999999999	0	44.86559896142617	-10.93367148347474	-10.94495805338739	52.15445732314265	0.9102669998797075	0	0	0	44.86559896142617	-10.93367148347474	-10.94495805338739	52.15445732314265	0.9102669998797075	0	0	0	-7.875093959514501	-0.4673711017825909	2.82313267407472	28.17443455115187	-3.276454604087327	1.183279297317461	9.639631337157569	84.53387228313866	0	0	57.96369001861822	-20.68255402091723	-11.70218419531791	55.47432593500277	74.76679801475099	0	0
5.899999999999962	-8.270241511810903	-3.49590175319002	35.34422464319552	0	0.9399999999999999	0	44.86566703983728	-10.93201592281494	-10.9438840155167	52.15542251441595	0.910283845645338	0	0	0	44.86566703983728	-10.93201592281494	-10.9438840155167	52.15542251441595	0.910283845645338	0	0	0	-7.873851124224908	-0.4832914908777617	2.962458448283511	28.23523199675302	-3.272217184607217	1.208512730829362	9.589734100212393	84.58904095849016	0	0	57.83162108030014	-19.66528444785333	-11.02663816737274	55.3220804416997	75.96592232574743	0	0
5.919999999999962	-8.270141453786648	-3.494459458849644	35.1751654033993	0	0.9399999999999999	0	44.86572844046254	-10.93052470474205	-10.94291598337693	52.15629328899313	0.9102990435287526	0	0	0	44.86572844046254	-10.93052470474205	-10.94291598337693	52.15629328899313	0.9102990435287526	0	0	0	-7.86596866692997	-0.5049424400626733	3.096808481412967	28.2428435422843	-3.217554055061326	1.283832657887906	9.556320891532156	84.54343189497975	0	0	57.6947340834961	-18.59365900383174	-10.27428118375458	55.20781300955618	76.74489702169151	0	0
5.939999999999961	-8.274247854067742	-3.492081789415062	35.01730864647971	0	0.9399999999999999	0	44.86575988509089	-10.92976441719506	-10.94242162444946	52.15674079407736	0.9103068539658917	0	0	0	44.86575988509089	-10.92976441719506	-10.94242162444946	52.15674079407736	0.9103068539658917	0	0	0	-7.861364129039274	-0.5232371002415557	3.22691444533862	28.26805713490555	-3.182314213703589	1.348354889468588	9.516108896333545	84.48708609413664	0	0	57.54835447700896	-17.5185396790168	-9.599416064242734	55.19394623172682	76.89834045424067	0	0
5.959999999999961	-8.27320696022872	-3.503489812280119	34.88085966424256	0	0.9399999999999999	0	44.86579816168747	-10.9288381470325	-10.94181945012585	52.15728480644073	0.910316348772804	0	0	0	44.86579816168747	-10.9288381470325	-10.94181945012585	52.15728480644073	0.910316348772804	0	0	0	-7.861320087834967	-0.5540869177617246	3.344872801718052	28.30739454987811	-3.156819281750983	1.368663670155553	9.498651808075909	84.4635694957236	0	0	57.4719901860178	-16.50647514949573	-9.033467332547314	55.08055200970549	77.24063786119559	0	0
5.97999999999996	-8.283414349750672	-3.50548779303828	34.75600446774914	0	0.9399999999999999	0	44.86588353738087	-10.92676768350198	-10.94047413441592	52.15849460812663	0.9103374637955193	0	0	0	44.86588353738087	-10.92676768350198	-10.94047413441592	52.15849460812663	0.9103374637955193	0	0	0	-7.867088165284229	-0.562930075000977	3.422739504219622	28.32807319005389	-3.137447865153575	1.380167273253168	9.517034866446128	84.53065739669104	0	0	57.50316009195029	-15.68696273148745	-8.766161651713785	54.74596460441916	78.05201514657583	0	0
5.99999999999996	-8.284217511981309	-3.502623382849779	34.59039529243218	0	0.9399999999999999	0	44.86596911134549	-10.92469892888458	-10.93912813748256	52.15970920727398	0.9103586625497323	0	0	0	44.86596911134549	-10.92469892888458	-10.93912813748256	52.15970920727398	0.9103586625497323	0	0	0	-7.859818356071083	-0.5821317874004845	3.552032479431805	28.31681447900007	-3.143953488466557	1.356666356348931	9.520506403747506	84.59278088000893	0	0	57.82467051461251	-14.53374800405209	-8.886088712777985	54.00983318204836	79.76875563574995	0	0
6.01999999999996	-8.302328887713744	-3.511128177023044	34.60314741694468	0	0.9399999999999999	0	44.86601707657577	-10.92355019172986	-10.93837822853442	52.16039542714473	0.9103706393458696	0	0	0	44.86601707657577	-10.92355019172986	-10.93837822853442	52.16039542714473	0.9103706393458696	0	0	0	-7.877004731181064	-0.5883575588322738	3.606581786160816	28.35495205255495	-3.188378145374806	1.236090703683454	9.517781102958232	84.63412888107611	0	0	58.2694724996643	-14.15887417486142	-9.063624187550625	53.69812543423647	80.4168746485265	0	0
6.039999999999959	-8.298116284830302	-3.502236923676496	34.62815618404231	0	0.9399999999999999	0	44.86605923722666	-10.92254250602624	-10.93771987320592	52.16099939421263	0.910381180559778	0	0	0	44.86605923722666	-10.92254250602624	-10.93771987320592	52.16099939421263	0.910381180559778	0	0	0	-7.868422981292832	-0.5839225006926282	3.60942470723295	28.28687995973817	-3.192120887678267	1.218206718294926	9.529982062786294	84.63261386731214	0	0	58.73132812484396	-14.03695759641133	-9.180848965426657	53.30102936807702	79.91525647904217	0	0
6.059999999999959	-8.301015602375857	-3.50946768911236	34.66207241284278	0	0.9399999999999999	0	44.86610154052818	-10.92153279481673	-10.93705979847284	52.16160577053037	0.9103917638230288	0	0	0	44.86610154052818	-10.92153279481673	-10.93705979847284	52.16160577053037	0.9103917638230288	0	0	0	-7.873372780617875	-0.5945628953938373	3.646033114177457	28.2975177966749	-3.201768281978792	1.150010819927348	9.523016437292151	84.63600773223621	0	0	59.28720784225693	-13.95925154988923	-9.032493811904029	52.96085413822559	79.51435036238497	0	0
6.079999999999958	-8.31295769139043	-3.518800613892146	34.68549061456908	0	0.9399999999999999	0	44.866136415555	-10.92070086782845	-10.93651577926296	52.16210567127364	0.9104004887369319	0	0	0	44.866136415555	-10.92070086782845	-10.93651577926296	52.16210567127364	0.9104004887369319	0	0	0	-7.886370632687333	-0.6044926944512455	3.698930364095226	28.3153020925444	-3.209249604564496	1.071575661267539	9.517119950819348	84.66220865856015	0	0	59.95526413541115	-13.92086635045649	-8.736161644425128	53.07043403026987	79.61096874465372	0	0
6.099999999999958	-8.319097807145656	-3.54130321490066	34.6547844524645	0	0.9399999999999999	0	44.86618045276168	-10.91964946492133	-10.93582835395595	52.16273599526654	0.9104114899659624	0	0	0	44.86618045276168	-10.91964946492133	-10.93582835395595	52.16273599526654	0.9104114899659624	0	0	0	-7.900574522058755	-0.6337245908818184	3.779108902086024	28.32744960716738	-3.197851663239454	1.119490942511855	9.522709685130852	84.63712238059392	0	0	60.68618126912826	-13.88274060249118	-8.155401037685355	53.59777694650482	79.53740524520997	0	0
6.119999999999957	-8.319691538644802	-3.547233979663643	34.59187438782819	0	0.9399999999999999	0	44.86625790386961	-10.9177952660852	-10.93461692735315	52.16384073941922	0.9104307713888188	0	0	0	44.86625790386961	-10.9177952660852	-10.93461692735315	52.16384073941922	0.9104307713888188	0	0	0	-7.901629009964513	-0.6499272992517802	3.848928306273108	28.22767466639651	-3.17887005285772	1.399222189101644	9.585484516754455	84.39290386037901	0	0	61.45784728009838	-14.02641493068258	-7.310454764588633	54.67112431949248	78.93513215527038	0	0
6.139999999999957	-8.316240409732945	-3.561235643748917	34.50015217362487	0	0.9399999999999999	0	44.86633629781861	-10.91591896738703	-10.9333906443992	52.16495779127208	0.9104502676215667	0	0	0	44.86633629781861	-10.91591896738703	-10.9333906443992	52.16495779127208	0.9104502676215667	0	0	0	-7.90303445887829	-0.6780517846686792	3.933444757304373	28.19408448271842	-3.165662004333513	1.529496172122428	9.602886479124656	84.33917929584175	0	0	62.32325608992618	-14.2969037654078	-6.375329303511287	56.1530446654539	78.33764816689731	0	0
6.159999999999957	-8.321243202588676	-3.573947874007281	34.43905098082866	0	0.9399999999999999	0	44.86638401161655	-10.91478223420497	-10.93264642787156	52.16564004799851	0.9104621752477867	0	0	0	44.86638401161655	-10.91478223420497	-10.93264642787156	52.16564004799851	0.9104621752477867	0	0	0	-7.912844311166491	-0.6933181827918711	3.976724196139621	28.17512624611785	-3.15774119873867	1.626742520406842	9.630539044512203	84.28377422073109	0	0	63.41854318703498	-14.51406542840465	-5.659577063161855	56.43747864923342	77.95264633119596	0	0
6.179999999999956	-8.31551703222374	-3.567794927284609	34.46292478588722	0	0.9399999999999999	0	44.86645951685012	-10.9130021835986	-10.93147670391079	52.16672946126179	0.9104811890961459	0	0	0	44.86645951685012	-10.9130021835986	-10.93147670391079	52.16672946126179	0.9104811890961459	0	0	0	-7.906702128146014	-0.6877490444945902	3.956806913229368	28.14979928342774	-3.178797631436338	1.698117917184068	9.614310930152838	84.2492023615123	0	0	63.41228395707975	-14.70793086034358	-5.603966160145501	59.08177094247603	77.94350559893452	0	0
6.199999999999956	-8.314247223220139	-3.577019274884206	34.44112074055998	0	0.9399999999999999	0	44.86655190032491	-10.91079541894912	-10.93003255916885	52.16804416766238	0.9105041350515333	0	0	0	44.86655190032491	-10.91079541894912	-10.93003255916885	52.16804416766238	0.9105041350515333	0	0	0	-7.91221924345645	-0.6963386302551759	3.955444057468644	28.13459065051401	-3.183337143846455	1.712975975048496	9.626289611006019	84.27859902363016	0	0	64.71623482275511	-15.16498668601038	-5.15240152618495	60.83842134166235	77.43633394762145	0	0
6.219999999999955	-8.311277680422601	-3.571853605811871	34.39272078731624	0	0.9399999999999999	0	44.8666287268844	-10.90898631321718	-10.92884265017352	52.16915099282843	0.9105234527949247	0	0	0	44.8666287268844	-10.90898631321718	-10.92884265017352	52.16915099282843	0.9105234527949247	0	0	0	-7.90574748915316	-0.7013532283376908	3.991254730027632	28.10274984806457	-3.202152115599665	1.681386541771285	9.617282566021533	84.29921215098192	0	0	64.7296447232771	-15.38172516389295	-5.15596337038802	63.80953029123203	77.69738710365685	0	0
